<svg width="175" height="36" viewBox="0 0 175 36" fill="none" xmlns="http://www.w3.org/2000/svg">
    <circle cx="46" cy="20" r="5" fill="#FFBE21" />
    <circle cx="64" cy="20" r="5" fill="#FFBE21" />
    <path d="M1.904 28V8.4H5.488V16.548H14.28V8.4H17.864V28H14.28V19.46H5.488V28H1.904ZM26.3775 28.336C25.1829 28.336 24.2029 28.1493 23.4375 27.776C22.6722 27.384 22.1029 26.8707 21.7295 26.236C21.3562 25.6013 21.1695 24.9013 21.1695 24.136C21.1695 22.848 21.6735 21.8027 22.6815 21C23.6895 20.1973 25.2015 19.796 27.2175 19.796H30.7455V19.46C30.7455 18.508 30.4749 17.808 29.9335 17.36C29.3922 16.912 28.7202 16.688 27.9175 16.688C27.1895 16.688 26.5549 16.8653 26.0135 17.22C25.4722 17.556 25.1362 18.06 25.0055 18.732H21.5055C21.5989 17.724 21.9349 16.8467 22.5135 16.1C23.1109 15.3533 23.8762 14.784 24.8095 14.392C25.7429 13.9813 26.7882 13.776 27.9455 13.776C29.9242 13.776 31.4829 14.2707 32.6215 15.26C33.7602 16.2493 34.3295 17.6493 34.3295 19.46V28H31.2775L30.9415 25.76C30.5309 26.5067 29.9522 27.1227 29.2055 27.608C28.4775 28.0933 27.5349 28.336 26.3775 28.336ZM27.1895 25.536C28.2162 25.536 29.0095 25.2 29.5695 24.528C30.1482 23.856 30.5122 23.0253 30.6615 22.036H27.6095C26.6575 22.036 25.9762 22.2133 25.5655 22.568C25.1549 22.904 24.9495 23.324 24.9495 23.828C24.9495 24.3693 25.1549 24.7893 25.5655 25.088C25.9762 25.3867 26.5175 25.536 27.1895 25.536ZM37.7497 34.16V14.112H40.9417L41.3337 16.1C41.7817 15.484 42.3697 14.9427 43.0977 14.476C43.8444 14.0093 44.8057 13.776 45.9817 13.776C47.2884 13.776 48.455 14.0933 49.4817 14.728C50.5084 15.3627 51.3204 16.2307 51.9177 17.332C52.515 18.4333 52.8137 19.684 52.8137 21.084C52.8137 22.484 52.515 23.7347 51.9177 24.836C51.3204 25.9187 50.5084 26.7773 49.4817 27.412C48.455 28.028 47.2884 28.336 45.9817 28.336C44.9364 28.336 44.0217 28.14 43.2377 27.748C42.4537 27.356 41.819 26.8053 41.3337 26.096V34.16H37.7497ZM45.2257 25.2C46.3644 25.2 47.307 24.8173 48.0537 24.052C48.8004 23.2867 49.1737 22.2973 49.1737 21.084C49.1737 19.8707 48.8004 18.872 48.0537 18.088C47.307 17.304 46.3644 16.912 45.2257 16.912C44.0684 16.912 43.1164 17.304 42.3697 18.088C41.6417 18.8533 41.2777 19.8427 41.2777 21.056C41.2777 22.2693 41.6417 23.268 42.3697 24.052C43.1164 24.8173 44.0684 25.2 45.2257 25.2ZM56.0153 34.16V14.112H59.2073L59.5993 16.1C60.0473 15.484 60.6353 14.9427 61.3633 14.476C62.11 14.0093 63.0713 13.776 64.2473 13.776C65.554 13.776 66.7206 14.0933 67.7473 14.728C68.774 15.3627 69.586 16.2307 70.1833 17.332C70.7806 18.4333 71.0793 19.684 71.0793 21.084C71.0793 22.484 70.7806 23.7347 70.1833 24.836C69.586 25.9187 68.774 26.7773 67.7473 27.412C66.7206 28.028 65.554 28.336 64.2473 28.336C63.202 28.336 62.2873 28.14 61.5033 27.748C60.7193 27.356 60.0846 26.8053 59.5993 26.096V34.16H56.0153ZM63.4913 25.2C64.63 25.2 65.5726 24.8173 66.3193 24.052C67.066 23.2867 67.4393 22.2973 67.4393 21.084C67.4393 19.8707 67.066 18.872 66.3193 18.088C65.5726 17.304 64.63 16.912 63.4913 16.912C62.334 16.912 61.382 17.304 60.6353 18.088C59.9073 18.8533 59.5433 19.8427 59.5433 21.056C59.5433 22.2693 59.9073 23.268 60.6353 24.052C61.382 24.8173 62.334 25.2 63.4913 25.2ZM74.7591 34.16L77.9791 27.076H77.1391L71.7351 14.112H75.6271L79.5191 23.884L83.5791 14.112H87.3871L78.5671 34.16H74.7591ZM96.486 28V8.4H100.07V16.548H108.862V8.4H112.446V28H108.862V19.46H100.07V28H96.486ZM122.836 28.336C121.492 28.336 120.278 28.028 119.196 27.412C118.132 26.796 117.282 25.9467 116.648 24.864C116.032 23.7627 115.724 22.4933 115.724 21.056C115.724 19.6187 116.041 18.3587 116.676 17.276C117.31 16.1747 118.16 15.316 119.224 14.7C120.306 14.084 121.52 13.776 122.864 13.776C124.189 13.776 125.384 14.084 126.448 14.7C127.53 15.316 128.38 16.1747 128.996 17.276C129.63 18.3587 129.948 19.6187 129.948 21.056C129.948 22.4933 129.63 23.7627 128.996 24.864C128.38 25.9467 127.53 26.796 126.448 27.412C125.365 28.028 124.161 28.336 122.836 28.336ZM122.836 25.228C123.769 25.228 124.581 24.8827 125.272 24.192C125.962 23.4827 126.308 22.4373 126.308 21.056C126.308 19.6747 125.962 18.6387 125.272 17.948C124.581 17.2387 123.778 16.884 122.864 16.884C121.912 16.884 121.09 17.2387 120.4 17.948C119.728 18.6387 119.392 19.6747 119.392 21.056C119.392 22.4373 119.728 23.4827 120.4 24.192C121.09 24.8827 121.902 25.228 122.836 25.228ZM133.152 28V14.112H136.316L136.624 15.988C137.072 15.316 137.66 14.784 138.388 14.392C139.135 13.9813 139.993 13.776 140.964 13.776C143.111 13.776 144.632 14.6067 145.528 16.268C146.032 15.5027 146.704 14.896 147.544 14.448C148.403 14 149.336 13.776 150.344 13.776C152.155 13.776 153.545 14.3173 154.516 15.4C155.487 16.4827 155.972 18.0693 155.972 20.16V28H152.388V20.496C152.388 19.3013 152.155 18.3867 151.688 17.752C151.24 17.1173 150.54 16.8 149.588 16.8C148.617 16.8 147.833 17.1547 147.236 17.864C146.657 18.5733 146.368 19.5627 146.368 20.832V28H142.784V20.496C142.784 19.3013 142.551 18.3867 142.084 17.752C141.617 17.1173 140.899 16.8 139.928 16.8C138.976 16.8 138.201 17.1547 137.604 17.864C137.025 18.5733 136.736 19.5627 136.736 20.832V28H133.152ZM166.123 28.336C164.723 28.336 163.481 28.0373 162.399 27.44C161.316 26.8427 160.467 26.0027 159.851 24.92C159.235 23.8373 158.927 22.5867 158.927 21.168C158.927 19.7307 159.225 18.452 159.823 17.332C160.439 16.212 161.279 15.344 162.343 14.728C163.425 14.0933 164.695 13.776 166.151 13.776C167.513 13.776 168.717 14.0747 169.763 14.672C170.808 15.2693 171.62 16.0907 172.199 17.136C172.796 18.1627 173.095 19.3107 173.095 20.58C173.095 20.7853 173.085 21 173.067 21.224C173.067 21.448 173.057 21.6813 173.039 21.924H162.483C162.557 23.0067 162.931 23.856 163.603 24.472C164.293 25.088 165.124 25.396 166.095 25.396C166.823 25.396 167.429 25.2373 167.915 24.92C168.419 24.584 168.792 24.1547 169.035 23.632H172.675C172.413 24.5093 171.975 25.312 171.359 26.04C170.761 26.7493 170.015 27.3093 169.119 27.72C168.241 28.1307 167.243 28.336 166.123 28.336ZM166.151 16.688C165.273 16.688 164.499 16.94 163.827 17.444C163.155 17.9293 162.725 18.676 162.539 19.684H169.455C169.399 18.7693 169.063 18.0413 168.447 17.5C167.831 16.9587 167.065 16.688 166.151 16.688Z" fill="black" />
</svg>