<svg width="26" height="26" viewBox="0 0 26 26" fill="none" xmlns="http://www.w3.org/2000/svg">
<path d="M9.92291 12.5883C9.89041 12.5883 9.86874 12.5883 9.83624 12.5883C9.78208 12.5775 9.70624 12.5775 9.64124 12.5883C6.49957 12.4908 4.12708 10.0208 4.12708 6.97666C4.12708 3.87832 6.65124 1.35416 9.74958 1.35416C12.8479 1.35416 15.3721 3.87832 15.3721 6.97666C15.3612 10.0208 12.9779 12.4908 9.95541 12.5883C9.94457 12.5883 9.93374 12.5883 9.92291 12.5883ZM9.74958 2.97916C7.55041 2.97916 5.75208 4.77749 5.75208 6.97666C5.75208 9.14332 7.44208 10.8875 9.59791 10.9633C9.66291 10.9525 9.80374 10.9525 9.94458 10.9633C12.0679 10.8658 13.7362 9.12166 13.7471 6.97666C13.7471 4.77749 11.9487 2.97916 9.74958 2.97916Z" fill="#292D32"/>
<path d="M17.9179 12.7292C17.8854 12.7292 17.8529 12.7292 17.8204 12.7183C17.3762 12.7617 16.9212 12.4475 16.8779 12.0033C16.8346 11.5592 17.1054 11.1583 17.5496 11.1042C17.6796 11.0933 17.8204 11.0933 17.9396 11.0933C19.5212 11.0067 20.7562 9.70668 20.7562 8.11418C20.7562 6.46751 19.4237 5.13501 17.7771 5.13501C17.3329 5.14584 16.9646 4.77751 16.9646 4.33334C16.9646 3.88918 17.3329 3.52084 17.7771 3.52084C20.3121 3.52084 22.3812 5.59001 22.3812 8.12501C22.3812 10.6167 20.4312 12.6317 17.9504 12.7292C17.9396 12.7292 17.9287 12.7292 17.9179 12.7292Z" fill="#292D32"/>
<path d="M9.93374 24.4292C7.81041 24.4292 5.67624 23.8875 4.06208 22.8042C2.55624 21.8075 1.73291 20.4425 1.73291 18.9583C1.73291 17.4742 2.55624 16.0983 4.06208 15.0908C7.31208 12.935 12.5771 12.935 15.8054 15.0908C17.3004 16.0875 18.1346 17.4525 18.1346 18.9367C18.1346 20.4208 17.3112 21.7967 15.8054 22.8042C14.1804 23.8875 12.0571 24.4292 9.93374 24.4292ZM4.96124 16.4558C3.92124 17.1492 3.35791 18.0375 3.35791 18.9692C3.35791 19.89 3.93208 20.7783 4.96124 21.4608C7.65874 23.27 12.2087 23.27 14.9062 21.4608C15.9462 20.7675 16.5096 19.8792 16.5096 18.9475C16.5096 18.0267 15.9354 17.1383 14.9062 16.4558C12.2087 14.6575 7.65874 14.6575 4.96124 16.4558Z" fill="#292D32"/>
<path d="M19.8679 22.4792C19.4887 22.4792 19.1529 22.2192 19.0771 21.8292C18.9904 21.385 19.2721 20.9625 19.7054 20.865C20.3879 20.7242 21.0162 20.4533 21.5037 20.0742C22.1212 19.6083 22.4571 19.0233 22.4571 18.4058C22.4571 17.7883 22.1212 17.2033 21.5146 16.7483C21.0379 16.38 20.4421 16.12 19.7379 15.9575C19.3046 15.86 19.0229 15.4267 19.1204 14.9825C19.2179 14.5492 19.6512 14.2675 20.0954 14.365C21.0271 14.5708 21.8396 14.9392 22.5004 15.4483C23.5079 16.2067 24.0821 17.2792 24.0821 18.4058C24.0821 19.5325 23.4971 20.605 22.4896 21.3742C21.8179 21.8942 20.9729 22.2733 20.0412 22.4575C19.9762 22.4792 19.9221 22.4792 19.8679 22.4792Z" fill="#292D32"/>
</svg>
