<svg width="963" height="1009" viewBox="0 0 963 1009" fill="none" xmlns="http://www.w3.org/2000/svg">
    <g filter="url(#filter0_f_0_1)">
        <ellipse cx="718.278" cy="317" rx="372.278" ry="346" fill="url(#paint0_linear_0_1)" />
    </g>
    <g opacity="0.2" filter="url(#filter1_b_0_1)">
        <path d="M855.266 36.4914C863.198 25.1591 867.164 19.4929 872.336 19.9399C877.507 20.3868 880.442 26.6493 886.312 39.1744L928.899 130.046C934.729 142.485 937.644 148.705 934.704 152.959C931.765 157.212 924.917 156.685 911.219 155.632L810.457 147.878C796.497 146.804 789.517 146.267 787.283 141.542C785.048 136.816 789.063 131.081 797.091 119.61L855.266 36.4914Z" fill="url(#paint1_linear_0_1)" />
    </g>
    <defs>
        <filter id="filter0_f_0_1" x="0.640259" y="-374.36" width="1435.28" height="1382.72" filterUnits="userSpaceOnUse" color-interpolation-filters="sRGB">
            <feFlood flood-opacity="0" result="BackgroundImageFix" />
            <feBlend mode="normal" in="SourceGraphic" in2="BackgroundImageFix" result="shape" />
            <feGaussianBlur stdDeviation="172.68" result="effect1_foregroundBlur_0_1" />
        </filter>
        <filter id="filter1_b_0_1" x="756.67" y="-10.0847" width="209.193" height="196.457" filterUnits="userSpaceOnUse" color-interpolation-filters="sRGB">
            <feFlood flood-opacity="0" result="BackgroundImageFix" />
            <feGaussianBlur in="BackgroundImage" stdDeviation="15" />
            <feComposite in2="SourceAlpha" operator="in" result="effect1_backgroundBlur_0_1" />
            <feBlend mode="normal" in="SourceGraphic" in2="effect1_backgroundBlur_0_1" result="shape" />
        </filter>
        <linearGradient id="paint0_linear_0_1" x1="395.335" y1="148.016" x2="713.796" y2="602.204" gradientUnits="userSpaceOnUse">
            <stop stop-color="#FFE600" stop-opacity="0.3" />
            <stop offset="1" stop-color="#EF3CD2" stop-opacity="0.2" />
        </linearGradient>
        <linearGradient id="paint1_linear_0_1" x1="860.5" y1="11" x2="860.5" y2="158" gradientUnits="userSpaceOnUse">
            <stop stop-color="#FF5B96" stop-opacity="0.4" />
            <stop offset="1" stop-color="#FF5B79" stop-opacity="0.25" />
        </linearGradient>
    </defs>
</svg>