<svg width="59" height="45" viewBox="0 0 59 45" fill="none" xmlns="http://www.w3.org/2000/svg">
    <path fill-rule="evenodd" clip-rule="evenodd" d="M22.9277 10.6801C23.8581 9.74291 24.9077 8.90233 26.0114 8.19249C28.17 6.80392 31.4837 5.40891 34.65 5.04395C36.8204 4.7938 38.921 5.03065 40.5607 6.03985C43.6839 7.96208 44.6861 11.7477 44.2847 15.834C43.9919 18.8142 42.9579 21.9496 41.5119 24.5871C43.3328 23.2759 45.7304 21.9847 48.1375 21.4745C50.8356 20.9005 53.5412 21.2969 55.527 23.6295C59.677 28.5054 58.4162 33.7818 54.9017 37.8663C51.4488 41.8783 45.8025 44.7146 41.1212 44.8276C40.8736 44.8328 40.6679 44.637 40.662 44.3899C40.6562 44.1428 40.8522 43.9374 41.0997 43.9322C45.56 43.8231 50.9318 41.106 54.2215 37.2824C57.4493 33.5315 58.6549 28.6872 54.8438 24.2107C53.0947 22.1563 50.7003 21.844 48.3237 22.3495C45.8512 22.8755 43.393 24.2753 41.6222 25.6187C41.1425 25.9817 40.6581 26.3423 40.1786 26.7098C38.9666 28.3949 37.5819 29.7139 36.1612 30.4318C35.8083 30.6088 35.6136 30.3862 35.5621 30.3212C35.4917 30.2325 35.4171 30.0858 35.4935 29.8781C35.5079 29.839 35.5455 29.7645 35.6174 29.6788C35.716 29.5633 35.9396 29.3459 36.0309 29.2417C36.4074 28.8085 36.8275 28.4023 37.2414 28.0072C37.9605 27.3185 38.7355 26.6915 39.5252 26.084C39.6315 25.9332 39.7362 25.781 39.8394 25.6259C41.6859 22.8439 43.0542 19.1878 43.3923 15.7469C43.7575 12.0285 42.9319 8.5515 40.09 6.80244C38.6107 5.89198 36.7106 5.70806 34.7526 5.93377C31.7262 6.28254 28.5599 7.61827 26.4968 8.94538C25.2367 9.75601 24.0499 10.7453 23.0456 11.8585C22.7123 12.228 22.4161 12.6385 22.1337 13.0481C22.1027 13.0931 22.0604 13.1592 22.0136 13.2349C21.8952 13.4596 21.768 13.6773 21.6317 13.8877C21.5598 13.9984 21.5072 14.0408 21.4976 14.0484C21.2464 14.249 21.0395 14.1248 20.9501 14.0586C20.9235 14.0389 20.6535 13.8258 20.8191 13.4904C20.8528 13.4224 21.0685 13.0549 21.242 12.777C22.4925 10.3813 22.622 7.18232 21.6942 4.69521C21.1059 3.1186 20.0898 1.82567 18.6355 1.24882C17.6684 0.865342 16.5125 0.802838 15.1722 1.16562C11.9398 2.04061 9.38397 4.20619 7.17725 6.77267C4.91981 9.39812 3.02808 12.4452 1.17924 15.023C1.03519 15.224 0.75482 15.2704 0.553642 15.1264C0.35248 14.9826 0.306135 14.7026 0.450335 14.5016C2.31329 11.9038 4.22211 8.8351 6.49693 6.18919C8.82262 3.48446 11.5311 1.2233 14.9378 0.30118C16.4972 -0.120982 17.8416 -0.0298003 18.9667 0.41635C20.6504 1.08405 21.8536 2.55694 22.5345 4.38224C23.2461 6.2897 23.383 8.57987 22.9277 10.6801Z" fill="#A15842" />
</svg>